<?xml version="1.0" standalone="no"?>
<!DOCTYPE svg PUBLIC "-//W3C//DTD SVG 20010904//EN"
 "http://www.w3.org/TR/2001/REC-SVG-20010904/DTD/svg10.dtd">
<svg version="1.0" xmlns="http://www.w3.org/2000/svg"
 width="255.000000pt" height="255.000000pt" viewBox="0 0 255.000000 255.000000"
 preserveAspectRatio="xMidYMid meet">
<metadata>
Created by potrace 1.14, written by Peter Selinger 2001-2017
</metadata>
<g transform="translate(0.000000,255.000000) scale(0.100000,-0.100000)"
fill="#000000" stroke="none">
<path d="M1125 2440 c-324 -57 -583 -252 -730 -548 -31 -64 -72 -173 -80 -215
-22 -109 -51 -172 -137 -299 -39 -57 -95 -199 -113 -283 -36 -176 -6 -359 80
-490 28 -42 112 -131 179 -190 88 -79 306 -180 451 -211 146 -30 262 -39 530
-39 329 0 442 14 635 77 133 43 311 150 400 241 79 81 162 215 175 287 3 14 7
39 11 55 10 57 11 140 2 213 -14 119 -51 217 -139 367 -67 114 -87 159 -111
245 -39 142 -66 214 -106 285 -48 83 -119 182 -161 225 -41 41 -136 120 -144
120 -3 0 -26 14 -51 30 -176 119 -455 171 -691 130z"/>
</g>
</svg>
